<?xml version="1.0" encoding="UTF-8"?>
<svg id="Camada_1" data-name="Camada 1" xmlns="http://www.w3.org/2000/svg" viewBox="0 0 296.75 97.37">
  <defs>
    <style>
      .cls-1 {
        fill: #df5821;
      }

      .cls-2 {
        fill: rgba(225, 94, 38, .94);
      }

      .cls-3 {
        fill: #e15e26;
      }

      .cls-4 {
        fill: rgba(251, 251, 251, .99);
      }

      .cls-5 {
        fill: #fbfbfb;
      }

      .cls-6 {
        fill: rgba(251, 251, 251, .95);
      }
    </style>
  </defs>
  <path class="cls-5" d="M33.8,66.89C7.33,31.97,54.03-9.2,82.85,21.03c-2.01,1.76-4.1,3.77-6.09,5.59-6.89-7.4-18.02-8.74-27.05-4.71-6.1,2.72-10.87,7.76-13.26,14.01-2.38,6.21-1.69,12.4.98,18.38,1.97-1.2,4.99-2.74,7.06-3.84,5.68-2.98,11.38-5.91,17.12-8.78,10.26-5.23,20.11-10.59,30.26-16.01l1.73-.92,1.26-.65c.46.22.96.42,1.34.75l-.93.85c-.19.17-.91.85-1.08.96-6.05,6.04-11.94,11.12-17.94,17.55-4.15,4.53-8.26,9.09-12.32,13.69-2.74,3.09-5.86,6.68-8.79,9.59l-.87,1.08c16.99,4.92,32.47-4.55,37.28-21.17.38-1.3.69-2.61,1.11-3.9,0,8.26-3.57,18.83-9.52,24.68-6.31,6.21-14.32,8.85-23.04,8.83-7.47.06-14.8-1.94-21.21-5.77l-1.15.81-1.66,1.1-1.3.87c-2.11,1.44-4.8,3.11-7.02,4.43-.64-.51-2.21-.58-3.1-.69l-.06-.06c.22-.44,1.58-1.63,2.03-2.04-.31-.54-1.54-.88-2.14-.9l1.27-1.07,1.36-1.13c.51-.43.93-.77,1.47-1.16,1.2-1.12,4.34-3.51,5.21-4.51Z"/>
  <path class="cls-3" d="M93.6,24.74l1.26-.65c.46.22.96.42,1.34.75l-.93.85c-.19.17-.91.85-1.08.96-6.05,6.04-11.94,11.12-17.94,17.55-4.15,4.53-8.26,9.09-12.32,13.69-2.74,3.09-5.86,6.68-8.79,9.59l-.87,1.08-2.03-.73-.08-.3c1.82-7.71,20.77-23.79,26.15-30.78-4.7,2.13-10.27,5.8-14.74,8.53-7.76,4.64-15.44,9.42-23.03,14.33-1.3-1.92-2.13-3.23-3.1-5.33,1.97-1.2,4.99-2.74,7.06-3.84,5.68-2.98,11.38-5.91,17.12-8.78,10.26-5.23,20.11-10.59,30.26-16.01l1.73-.92Z"/>
  <path class="cls-1" d="M93.6,24.74l1.26-.65c.46.22.96.42,1.34.75l-.93.85c-.19.17-.91.85-1.08.96-.32-.42-1.69-.78-2.31-1l1.73-.92Z"/>
  <path class="cls-3" d="M93.6,24.74l1.26-.65c.46.22.96.42,1.34.75l-.93.85c-.79-.31-.98-.44-1.66-.96Z"/>
  <path class="cls-3" d="M24.66,77.77c1.71-.83,6.22-3.87,7.97-5,.4.73,1.37.82,2.15,1.26-2.11,1.44-4.8,3.11-7.02,4.43-.64-.51-2.21-.58-3.1-.69Z"/>
  <path class="cls-1" d="M33.8,66.89l1.15,1.31c-1.45,1.29-2.96,2.67-4.44,3.91-.91-.44-1.02-.4-1.92-.7,1.2-1.12,4.34-3.51,5.21-4.51Z"/>
  <path class="cls-3" d="M33.75,71.95c.52-.36,1.05-.69,1.58-1.03.47.52,1.72.92,2.4,1.13l-1.66,1.1-1.3.87c-.78-.44-1.75-.53-2.15-1.26l1.13-.81Z"/>
  <path class="cls-1" d="M33.75,71.95c.98.26,1.51.59,2.32,1.2l-1.3.87c-.78-.44-1.75-.53-2.15-1.26l1.13-.81Z"/>
  <path class="cls-1" d="M25.76,73.69l1.36-1.13c.65.14,1.33.51,1.62,1.12l-.47.44-1.66,1.54c-.31-.54-1.54-.88-2.14-.9l1.27-1.07Z"/>
  <path class="cls-3" d="M24.48,74.77l1.27-1.07c.81.44,1.3.79,2.2.52l.13-.04c.06-.02.12-.04.18-.05l-1.66,1.54c-.31-.54-1.54-.88-2.14-.9Z"/>
  <path class="cls-1" d="M35.33,70.92c.52-.37,1.04-.75,1.57-1.11.54.4,1.43,1.1,1.98,1.42l-1.15.81c-.67-.2-1.93-.61-2.4-1.13Z"/>
  <path class="cls-3" d="M27.12,72.56c.51-.43.93-.77,1.47-1.16.9.3,1.01.26,1.92.7l-1.77,1.58c-.29-.61-.97-.98-1.62-1.12Z"/>
  <path class="cls-5" d="M145.91,42.3c3.76-.39,9.46.12,13.31,0,4-.12,4.49,4.68,4.34,7.71-.17,3.42.3,6.51-4,7.78-3,0-12.87.47-14.99-.52-1.11-.52-1.9-1.72-2.28-2.85-.68-2-.69-7.67.27-9.53.74-1.43,1.87-2.12,3.34-2.59ZM158.59,55.09c.72-.17,1.3-.41,1.7-1.08.53-.89.61-6.29.29-7.43-.14-.5-.43-1.01-.9-1.26-1.59-.82-10.49-.37-12.85-.38-.7.25-1.39.55-1.73,1.26-.45.96-.53,6.43-.12,7.43.23.57.75.94,1.31,1.17,1.75.7,9.88.31,12.31.29Z"/>
  <path class="cls-5" d="M224.8,42.25h3.1c.16,4.76-.02,10.65-.03,15.52-.88.04-1.89.02-2.79.03-.11-2.15-.02-5.11-.02-7.33v-4.06c-2.49,3.47-5.16,6.96-7.72,10.37l-2.22.02c-2.52-3.31-5.13-7.01-7.62-10.39-.08,3.74,0,7.62-.04,11.38h-2.8c-.08-3.17.02-6.52-.02-9.73-.02-1.21-.06-4.76.11-5.78l3.2-.02c2.68,3.23,5.59,7.54,8.32,10.98,2.87-3.64,5.71-7.3,8.52-10.98Z"/>
  <path class="cls-5" d="M172.6,42.26h3.09c2.73,3.48,5.53,7.43,8.26,11.02.71-1.08,2.23-2.94,3.06-4.02,1.78-2.32,3.54-4.66,5.27-7.01h3.1c.1,5.07,0,10.43,0,15.51l-2.82.05c-.11-2.05,0-5.21,0-7.34,0-1.38-.02-2.7.04-4.08l-7.59,10.37h-2.18c-2.48-3.35-5.18-7.02-7.51-10.48.15,3.46.02,7.96.02,11.5l-2.77.02c-.13-4.45-.13-11.1.03-15.53Z"/>
  <path class="cls-5" d="M237.65,42.27h18.42s.01,2.68.01,2.68l-15.56-.02v3.81s13.37,0,13.37,0c.04.76,0,1.85,0,2.63h-6.5s-6.88-.01-6.88-.01v3.74s15.55-.04,15.55-.04v2.73c-6,.11-12.44.01-18.46,0,0-5.08-.09-10.46.03-15.52Z"/>
  <path class="cls-5" d="M116.33,42.33c2.03-.23,13.61-.34,14.89.37,1.46.81,2.11,2.14,2.53,3.68-.77.16-1.92.3-2.72.42-.15-.29-.3-.59-.48-.87-.3-.46-.75-.76-1.29-.87-1.39-.27-12.02-.36-12.96.36-.7.54-.97,1.78-1.02,2.6-.12,1.66-.38,5.22.83,6.44,1.04,1.05,4.46.64,5.93.62,2.25-.03,5.16.29,7.29-.19.91-.2,1.32-.92,1.71-1.69l2.74.46c-.09.29-.19.58-.31.86-.48,1.2-1.3,2.4-2.55,2.9-1.61.64-13.94.63-15.38.01-1.17-.5-2.23-1.52-2.7-2.71-.68-1.7-.68-7.99.08-9.65.67-1.47,1.96-2.18,3.4-2.74Z"/>
  <path class="cls-5" d="M264.72,42.26h19.27c.04.77.01,1.87.02,2.68h-8.36s0,4.49,0,4.49v8.35h-2.79c-.15-3.97-.02-8.79-.02-12.83h-8.11s0-2.69,0-2.69Z"/>
  <path class="cls-1" d="M24.48,74.77c.6.01,1.83.35,2.14.9-.45.41-1.81,1.6-2.03,2.04l.06.06c.89.11,2.45.18,3.1.69-1.81,1.18-12.32,7.36-14.01,7.11-.07-.09-.16-.14-.15-.26.21-1.64,9.15-9.08,10.89-10.54Z"/>
  <path class="cls-4" d="M105.11,16.25c.31.53.62,2.83,1.28,3.63.73.87,2.97,1.03,4.13,1.21-3.99.71-4.47.48-5.28,4.65-.43-.21-.61-2.66-1.06-3.22-.71-.88-2.98-1.19-4.1-1.42,4.09-.58,4.26-.75,5.03-4.84Z"/>
  <path class="cls-5" d="M99.68,30.68c.38.3.69,1.58.87,2.12.79.3,1.78.49,2.61.68-2.35.52-2.79.45-3.23,2.9-.58-.03-.41-1.4-.75-1.82-.56-.67-1.76-.87-2.57-1.09,2.38-.52,2.53-.4,3.07-2.79Z"/>
  <path class="cls-1" d="M97.45,22.78l.23.72-1.49,1.34c-.38-.33-.88-.53-1.34-.75.86-.45,1.73-.89,2.6-1.31Z"/>
  <path class="cls-6" d="M91.96,17.06l.62.14.3.5-.37,2.29-.55-2.93Z"/>
  <path class="cls-2" d="M97.45,22.78c.75-.38,1.54-.8,2.31-1.12l-2.08,1.83-.23-.72Z"/>
</svg>